<?xml version="1.0" encoding="UTF-8"?>
<svg xmlns="http://www.w3.org/2000/svg" width="400" height="400" viewBox="0 0 400 400">

  <!-- Om ॐ symbols -->
  <text x="28" y="88" font-size="48" font-family="Georgia,'Noto Serif Devanagari',serif" fill="rgba(255,153,51,0.13)">ॐ</text>
  <text x="282" y="348" font-size="40" font-family="Georgia,'Noto Serif Devanagari',serif" fill="rgba(155,28,28,0.10)">ॐ</text>
  <text x="165" y="205" font-size="28" font-family="Georgia,'Noto Serif Devanagari',serif" fill="rgba(255,153,51,0.07)">ॐ</text>

  <!-- Swastik 卐 symbols -->
  <text x="238" y="128" font-size="44" font-family="Georgia,serif" fill="rgba(255,153,51,0.11)">卐</text>
  <text x="48" y="358" font-size="36" font-family="Georgia,serif" fill="rgba(212,175,55,0.10)">卐</text>
  <text x="338" y="215" font-size="26" font-family="Georgia,serif" fill="rgba(255,153,51,0.07)">卐</text>

  <!-- Temple Bell (Ghanti) — large -->
  <g transform="translate(135,258)">
    <circle cx="0" cy="-34" r="4.5" fill="rgba(212,175,55,0.11)"/>
    <rect x="-2" y="-30" width="4" height="8" fill="rgba(212,175,55,0.11)"/>
    <path d="M0,-22 C-9,-18 -17,-8 -17,12 L-17,18 Q-17,23 -12,23 L12,23 Q17,23 17,18 L17,12 C17,-8 9,-18 0,-22 Z" fill="rgba(212,175,55,0.11)"/>
    <circle cx="0" cy="28" r="4" fill="rgba(212,175,55,0.11)"/>
  </g>

  <!-- Temple Bell — top-right smaller -->
  <g transform="translate(332,58)">
    <circle cx="0" cy="-25" r="3.5" fill="rgba(255,153,51,0.09)"/>
    <rect x="-1.5" y="-22" width="3" height="6" fill="rgba(255,153,51,0.09)"/>
    <path d="M0,-16 C-7,-13 -13,-6 -13,9 L-13,14 Q-13,17 -9,17 L9,17 Q13,17 13,14 L13,9 C13,-6 7,-13 0,-16 Z" fill="rgba(255,153,51,0.09)"/>
    <circle cx="0" cy="20" r="3" fill="rgba(255,153,51,0.09)"/>
  </g>

  <!-- Temple Bell — bottom-left small -->
  <g transform="translate(62,170)">
    <circle cx="0" cy="-20" r="2.8" fill="rgba(155,28,28,0.08)"/>
    <rect x="-1" y="-17" width="2" height="5" fill="rgba(155,28,28,0.08)"/>
    <path d="M0,-12 C-5,-10 -10,-4 -10,7 L-10,11 Q-10,14 -7,14 L7,14 Q10,14 10,11 L10,7 C10,-4 5,-10 0,-12 Z" fill="rgba(155,28,28,0.08)"/>
    <circle cx="0" cy="16" r="2.5" fill="rgba(155,28,28,0.08)"/>
  </g>

</svg>
